{
	"asset":{
		"generator":"Khronos glTF Blender I/O v3.5.30",
		"version":"2.0"
	},
	"scene":0,
	"scenes":[
		{
			"name":"Scene",
			"nodes":[
				0,
				1
			]
		}
	],
	"nodes":[
		{
			"mesh":0,
			"name":"G-__555564"
		},
		{
			"mesh":1,
			"name":"G-__555573",
			"rotation":[
				0,
				0.05194053053855896,
				0,
				0.9986501932144165
			],
			"translation":[
				-169.43724060058594,
				474.99005126953125,
				203.35848999023438
			]
		}
	],
	"materials":[
		{
			"doubleSided":true,
			"name":"front texture",
			"pbrMetallicRoughness":{
				"baseColorTexture":{
					"index":0
				},
				"metallicFactor":0,
				"roughnessFactor":0.5
			}
		},
		{
			"doubleSided":true,
			"name":"back texture",
			"pbrMetallicRoughness":{
				"baseColorTexture":{
					"index":1
				},
				"metallicFactor":0,
				"roughnessFactor":0.5
			}
		},
		{
			"doubleSided":true,
			"name":"Material",
			"pbrMetallicRoughness":{
				"baseColorFactor":[
					0.800000011920929,
					0.800000011920929,
					0.800000011920929,
					1
				],
				"metallicFactor":0,
				"roughnessFactor":0.5
			}
		},
		{
			"doubleSided":true,
			"name":"face",
			"pbrMetallicRoughness":{
				"baseColorTexture":{
					"index":2
				},
				"metallicFactor":0,
				"roughnessFactor":0.5
			}
		},
		{
			"doubleSided":true,
			"name":"hair rear",
			"pbrMetallicRoughness":{
				"baseColorTexture":{
					"index":3
				},
				"metallicFactor":0,
				"roughnessFactor":0.5
			}
		},
		{
			"doubleSided":true,
			"name":"toes",
			"pbrMetallicRoughness":{
				"baseColorTexture":{
					"index":4
				},
				"metallicFactor":0,
				"roughnessFactor":0.5
			}
		},
		{
			"doubleSided":true,
			"name":"head right texture",
			"pbrMetallicRoughness":{
				"baseColorTexture":{
					"index":5
				},
				"metallicFactor":0,
				"roughnessFactor":0.5
			}
		},
		{
			"doubleSided":true,
			"name":"plan view modified",
			"pbrMetallicRoughness":{
				"baseColorTexture":{
					"index":6
				},
				"metallicFactor":0,
				"roughnessFactor":0.5
			}
		}
	],
	"meshes":[
		{
			"name":"G-__555564",
			"primitives":[
				{
					"attributes":{
						"POSITION":0,
						"TEXCOORD_0":1,
						"NORMAL":2
					},
					"indices":3,
					"material":0
				},
				{
					"attributes":{
						"POSITION":4,
						"TEXCOORD_0":5,
						"NORMAL":6
					},
					"indices":7,
					"material":1
				},
				{
					"attributes":{
						"POSITION":8,
						"TEXCOORD_0":9,
						"NORMAL":10
					},
					"indices":11,
					"material":2
				},
				{
					"attributes":{
						"POSITION":12,
						"TEXCOORD_0":13,
						"NORMAL":14
					},
					"indices":15,
					"material":3
				},
				{
					"attributes":{
						"POSITION":16,
						"TEXCOORD_0":17,
						"NORMAL":18
					},
					"indices":19,
					"material":4
				},
				{
					"attributes":{
						"POSITION":20,
						"TEXCOORD_0":21,
						"NORMAL":22
					},
					"indices":23,
					"material":5
				},
				{
					"attributes":{
						"POSITION":24,
						"TEXCOORD_0":25,
						"NORMAL":26
					},
					"indices":27,
					"material":6
				}
			]
		},
		{
			"name":"G-__555573",
			"primitives":[
				{
					"attributes":{
						"POSITION":28,
						"TEXCOORD_0":29,
						"NORMAL":30
					},
					"indices":31,
					"material":7
				}
			]
		}
	],
	"textures":[
		{
			"sampler":0,
			"source":0
		},
		{
			"sampler":0,
			"source":1
		},
		{
			"sampler":0,
			"source":2
		},
		{
			"sampler":0,
			"source":3
		},
		{
			"sampler":0,
			"source":4
		},
		{
			"sampler":0,
			"source":5
		},
		{
			"sampler":0,
			"source":6
		}
	],
	"images":[
		{
			"bufferView":4,
			"mimeType":"image/jpeg",
			"name":"front texture"
		},
		{
			"bufferView":9,
			"mimeType":"image/jpeg",
			"name":"back texture new(1)"
		},
		{
			"bufferView":18,
			"mimeType":"image/jpeg",
			"name":"face"
		},
		{
			"bufferView":23,
			"mimeType":"image/jpeg",
			"name":"hair rear"
		},
		{
			"bufferView":28,
			"mimeType":"image/jpeg",
			"name":"toes(1)"
		},
		{
			"bufferView":33,
			"mimeType":"image/jpeg",
			"name":"head right texture"
		},
		{
			"bufferView":38,
			"mimeType":"image/jpeg",
			"name":"plan view modified"
		}
	],
	"accessors":[
		{
			"bufferView":0,
			"componentType":5126,
			"count":242,
			"max":[
				2.74686861038208,
				27.873775482177734,
				15.714808464050293
			],
			"min":[
				-2.4658761024475098,
				1.2475618124008179,
				-14.339844703674316
			],
			"type":"VEC3"
		},
		{
			"bufferView":1,
			"componentType":5126,
			"count":242,
			"type":"VEC2"
		},
		{
			"bufferView":2,
			"componentType":5126,
			"count":242,
			"type":"VEC3"
		},
		{
			"bufferView":3,
			"componentType":5123,
			"count":663,
			"type":"SCALAR"
		},
		{
			"bufferView":5,
			"componentType":5126,
			"count":100,
			"max":[
				1.716141700744629,
				27.873775482177734,
				15.714808464050293
			],
			"min":[
				-2.505126476287842,
				1.2475618124008179,
				-14.344088554382324
			],
			"type":"VEC3"
		},
		{
			"bufferView":6,
			"componentType":5126,
			"count":100,
			"type":"VEC2"
		},
		{
			"bufferView":7,
			"componentType":5126,
			"count":100,
			"type":"VEC3"
		},
		{
			"bufferView":8,
			"componentType":5123,
			"count":348,
			"type":"SCALAR"
		},
		{
			"bufferView":10,
			"componentType":5126,
			"count":9,
			"max":[
				2.972416877746582,
				28.932449340820312,
				15.714808464050293
			],
			"min":[
				1.5772151947021484,
				25.274518966674805,
				0.5455865859985352
			],
			"type":"VEC3"
		},
		{
			"bufferView":11,
			"componentType":5126,
			"count":9,
			"type":"VEC2"
		},
		{
			"bufferView":12,
			"componentType":5126,
			"count":9,
			"type":"VEC3"
		},
		{
			"bufferView":13,
			"componentType":5123,
			"count":9,
			"type":"SCALAR"
		},
		{
			"bufferView":14,
			"componentType":5126,
			"count":195,
			"max":[
				3.248439311981201,
				32.085330963134766,
				2.589883804321289
			],
			"min":[
				-0.5811411142349243,
				27.498798370361328,
				-0.8396234512329102
			],
			"type":"VEC3"
		},
		{
			"bufferView":15,
			"componentType":5126,
			"count":195,
			"type":"VEC2"
		},
		{
			"bufferView":16,
			"componentType":5126,
			"count":195,
			"type":"VEC3"
		},
		{
			"bufferView":17,
			"componentType":5123,
			"count":1068,
			"type":"SCALAR"
		},
		{
			"bufferView":19,
			"componentType":5126,
			"count":24,
			"max":[
				1.1164450645446777,
				31.878562927246094,
				2.496527671813965
			],
			"min":[
				-0.9321197271347046,
				27.42034149169922,
				-0.6190404891967773
			],
			"type":"VEC3"
		},
		{
			"bufferView":20,
			"componentType":5126,
			"count":24,
			"type":"VEC2"
		},
		{
			"bufferView":21,
			"componentType":5126,
			"count":24,
			"type":"VEC3"
		},
		{
			"bufferView":22,
			"componentType":5123,
			"count":90,
			"type":"SCALAR"
		},
		{
			"bufferView":24,
			"componentType":5126,
			"count":48,
			"max":[
				3.3572168350219727,
				1.5575618743896484,
				2.505002975463867
			],
			"min":[
				2.2563767433166504,
				1.2475618124008179,
				-2.2328405380249023
			],
			"type":"VEC3"
		},
		{
			"bufferView":25,
			"componentType":5126,
			"count":48,
			"type":"VEC2"
		},
		{
			"bufferView":26,
			"componentType":5126,
			"count":48,
			"type":"VEC3"
		},
		{
			"bufferView":27,
			"componentType":5123,
			"count":204,
			"type":"SCALAR"
		},
		{
			"bufferView":29,
			"componentType":5126,
			"count":12,
			"max":[
				-0.2722041606903076,
				27.628820419311523,
				2.496527671813965
			],
			"min":[
				-0.9321197271347046,
				27.42034149169922,
				-0.46537113189697266
			],
			"type":"VEC3"
		},
		{
			"bufferView":30,
			"componentType":5126,
			"count":12,
			"type":"VEC2"
		},
		{
			"bufferView":31,
			"componentType":5126,
			"count":12,
			"type":"VEC3"
		},
		{
			"bufferView":32,
			"componentType":5123,
			"count":12,
			"type":"SCALAR"
		},
		{
			"bufferView":34,
			"componentType":5126,
			"count":4,
			"max":[
				458.3559265136719,
				6.006303093775145e-12,
				0
			],
			"min":[
				2.3101165145850318e-14,
				-9.240466058340127e-14,
				-308.6098937988281
			],
			"type":"VEC3"
		},
		{
			"bufferView":35,
			"componentType":5126,
			"count":4,
			"type":"VEC2"
		},
		{
			"bufferView":36,
			"componentType":5126,
			"count":4,
			"type":"VEC3"
		},
		{
			"bufferView":37,
			"componentType":5123,
			"count":6,
			"type":"SCALAR"
		}
	],
	"bufferViews":[
		{
			"buffer":0,
			"byteLength":2904,
			"byteOffset":0,
			"target":34962
		},
		{
			"buffer":0,
			"byteLength":1936,
			"byteOffset":2904,
			"target":34962
		},
		{
			"buffer":0,
			"byteLength":2904,
			"byteOffset":4840,
			"target":34962
		},
		{
			"buffer":0,
			"byteLength":1326,
			"byteOffset":7744,
			"target":34963
		},
		{
			"buffer":0,
			"byteLength":89348,
			"byteOffset":9072
		},
		{
			"buffer":0,
			"byteLength":1200,
			"byteOffset":98420,
			"target":34962
		},
		{
			"buffer":0,
			"byteLength":800,
			"byteOffset":99620,
			"target":34962
		},
		{
			"buffer":0,
			"byteLength":1200,
			"byteOffset":100420,
			"target":34962
		},
		{
			"buffer":0,
			"byteLength":696,
			"byteOffset":101620,
			"target":34963
		},
		{
			"buffer":0,
			"byteLength":83602,
			"byteOffset":102316
		},
		{
			"buffer":0,
			"byteLength":108,
			"byteOffset":185920,
			"target":34962
		},
		{
			"buffer":0,
			"byteLength":72,
			"byteOffset":186028,
			"target":34962
		},
		{
			"buffer":0,
			"byteLength":108,
			"byteOffset":186100,
			"target":34962
		},
		{
			"buffer":0,
			"byteLength":18,
			"byteOffset":186208,
			"target":34963
		},
		{
			"buffer":0,
			"byteLength":2340,
			"byteOffset":186228,
			"target":34962
		},
		{
			"buffer":0,
			"byteLength":1560,
			"byteOffset":188568,
			"target":34962
		},
		{
			"buffer":0,
			"byteLength":2340,
			"byteOffset":190128,
			"target":34962
		},
		{
			"buffer":0,
			"byteLength":2136,
			"byteOffset":192468,
			"target":34963
		},
		{
			"buffer":0,
			"byteLength":6482,
			"byteOffset":194604
		},
		{
			"buffer":0,
			"byteLength":288,
			"byteOffset":201088,
			"target":34962
		},
		{
			"buffer":0,
			"byteLength":192,
			"byteOffset":201376,
			"target":34962
		},
		{
			"buffer":0,
			"byteLength":288,
			"byteOffset":201568,
			"target":34962
		},
		{
			"buffer":0,
			"byteLength":180,
			"byteOffset":201856,
			"target":34963
		},
		{
			"buffer":0,
			"byteLength":28548,
			"byteOffset":202036
		},
		{
			"buffer":0,
			"byteLength":576,
			"byteOffset":230584,
			"target":34962
		},
		{
			"buffer":0,
			"byteLength":384,
			"byteOffset":231160,
			"target":34962
		},
		{
			"buffer":0,
			"byteLength":576,
			"byteOffset":231544,
			"target":34962
		},
		{
			"buffer":0,
			"byteLength":408,
			"byteOffset":232120,
			"target":34963
		},
		{
			"buffer":0,
			"byteLength":1593,
			"byteOffset":232528
		},
		{
			"buffer":0,
			"byteLength":144,
			"byteOffset":234124,
			"target":34962
		},
		{
			"buffer":0,
			"byteLength":96,
			"byteOffset":234268,
			"target":34962
		},
		{
			"buffer":0,
			"byteLength":144,
			"byteOffset":234364,
			"target":34962
		},
		{
			"buffer":0,
			"byteLength":24,
			"byteOffset":234508,
			"target":34963
		},
		{
			"buffer":0,
			"byteLength":1734,
			"byteOffset":234532
		},
		{
			"buffer":0,
			"byteLength":48,
			"byteOffset":236268,
			"target":34962
		},
		{
			"buffer":0,
			"byteLength":32,
			"byteOffset":236316,
			"target":34962
		},
		{
			"buffer":0,
			"byteLength":48,
			"byteOffset":236348,
			"target":34962
		},
		{
			"buffer":0,
			"byteLength":12,
			"byteOffset":236396,
			"target":34963
		},
		{
			"buffer":0,
			"byteLength":1203690,
			"byteOffset":236408
		}
	],
	"samplers":[
		{
			"magFilter":9729,
			"minFilter":9987
		}
	],
	"buffers":[
		{
			"byteLength":1440100,
			"uri":"data:application/octet-stream;base64,"
		}
	]
}
